<svg xmlns="http://www.w3.org/2000/svg" width="32" height="32" viewBox="0 0 32 32">
  <defs>
    <linearGradient id="gradient" x1="0%" y1="0%" x2="100%" y2="100%">
      <stop offset="0%" style="stop-color:#2563eb;stop-opacity:1" />
      <stop offset="100%" style="stop-color:#1d4ed8;stop-opacity:1" />
    </linearGradient>
  </defs>
  
  <!-- Background -->
  <rect width="32" height="32" rx="6" fill="url(#gradient)"/>
  
  <!-- File tree structure -->
  <g fill="white" opacity="0.9">
    <!-- Root folder -->
    <rect x="4" y="6" width="3" height="2" rx="0.5"/>
    <rect x="7" y="6" width="8" height="2" rx="0.5"/>
    
    <!-- Vertical lines -->
    <rect x="5.5" y="8" width="0.5" height="16"/>
    
    <!-- First level -->
    <rect x="6" y="10" width="0.5" height="2"/>
    <rect x="6.5" y="10.5" width="2" height="1" rx="0.2"/>
    <rect x="8.5" y="10" width="6" height="2" rx="0.5"/>
    
    <!-- Second level files -->
    <rect x="8" y="14" width="0.5" height="2"/>
    <rect x="8.5" y="14.5" width="2" height="1" rx="0.2"/>
    <rect x="10.5" y="14" width="8" height="2" rx="0.5"/>
    
    <rect x="8" y="18" width="0.5" height="2"/>
    <rect x="8.5" y="18.5" width="2" height="1" rx="0.2"/>
    <rect x="10.5" y="18" width="6" height="2" rx="0.5"/>
    
    <!-- Third level -->
    <rect x="6" y="22" width="0.5" height="2"/>
    <rect x="6.5" y="22.5" width="2" height="1" rx="0.2"/>
    <rect x="8.5" y="22" width="7" height="2" rx="0.5"/>
    
    <!-- Connection lines -->
    <rect x="6" y="8" width="2" height="0.5"/>
    <rect x="6" y="12" width="2" height="0.5"/>
    <rect x="8" y="12" width="2" height="0.5"/>
    <rect x="8" y="16" width="2" height="0.5"/>
    <rect x="8" y="20" width="2" height="0.5"/>
    <rect x="6" y="24" width="2" height="0.5"/>
  </g>
</svg>